<?xml version="1.0" encoding="UTF-8"?><svg xmlns="http://www.w3.org/2000/svg" xmlns:xlink="http://www.w3.org/1999/xlink" fill-opacity="1" color-rendering="auto" color-interpolation="auto" text-rendering="auto" stroke="black" stroke-linecap="square" width="610" stroke-miterlimit="10" shape-rendering="auto" stroke-opacity="1" fill="black" stroke-dasharray="none" font-weight="normal" stroke-width="1" height="210" font-family="'Dialog'" font-style="normal" stroke-linejoin="miter" font-size="12px" stroke-dashoffset="0" image-rendering="auto">
  <!--Generated by ySVG 2.5-->
  <defs id="genericDefs"/>
  <g>
    <defs id="defs1">
      <linearGradient x1="194" gradientUnits="userSpaceOnUse" x2="274" y1="201" y2="241" id="linearGradient1" spreadMethod="reflect">
        <stop stop-opacity="1" stop-color="rgb(232,238,247)" offset="0%"/>
        <stop stop-opacity="1" stop-color="rgb(183,201,227)" offset="100%"/>
      </linearGradient>
      <linearGradient x1="194" gradientUnits="userSpaceOnUse" x2="274" y1="131" y2="171" id="linearGradient2" spreadMethod="reflect">
        <stop stop-opacity="1" stop-color="rgb(232,238,247)" offset="0%"/>
        <stop stop-opacity="1" stop-color="rgb(183,201,227)" offset="100%"/>
      </linearGradient>
      <linearGradient x1="315" gradientUnits="userSpaceOnUse" x2="395" y1="201" y2="241" id="linearGradient3" spreadMethod="reflect">
        <stop stop-opacity="1" stop-color="rgb(232,238,247)" offset="0%"/>
        <stop stop-opacity="1" stop-color="rgb(183,201,227)" offset="100%"/>
      </linearGradient>
      <linearGradient x1="64" gradientUnits="userSpaceOnUse" x2="144" y1="201" y2="241" id="linearGradient4" spreadMethod="reflect">
        <stop stop-opacity="1" stop-color="rgb(232,238,247)" offset="0%"/>
        <stop stop-opacity="1" stop-color="rgb(183,201,227)" offset="100%"/>
      </linearGradient>
      <linearGradient x1="582" gradientUnits="userSpaceOnUse" x2="642" y1="201" y2="241" id="linearGradient5" spreadMethod="reflect">
        <stop stop-opacity="1" stop-color="rgb(232,238,247)" offset="0%"/>
        <stop stop-opacity="1" stop-color="rgb(183,201,227)" offset="100%"/>
      </linearGradient>
      <linearGradient x1="445" gradientUnits="userSpaceOnUse" x2="525" y1="201" y2="241" id="linearGradient6" spreadMethod="reflect">
        <stop stop-opacity="1" stop-color="rgb(232,238,247)" offset="0%"/>
        <stop stop-opacity="1" stop-color="rgb(183,201,227)" offset="100%"/>
      </linearGradient>
      <linearGradient x1="445" gradientUnits="userSpaceOnUse" x2="525" y1="271" y2="311" id="linearGradient7" spreadMethod="reflect">
        <stop stop-opacity="1" stop-color="rgb(232,238,247)" offset="0%"/>
        <stop stop-opacity="1" stop-color="rgb(183,201,227)" offset="100%"/>
      </linearGradient>
      <clipPath clipPathUnits="userSpaceOnUse" id="clipPath1">
        <path d="M0 0 L610 0 L610 210 L0 210 L0 0 Z"/>
      </clipPath>
      <clipPath clipPathUnits="userSpaceOnUse" id="clipPath2">
        <path d="M47 116 L657 116 L657 326 L47 326 L47 116 Z"/>
      </clipPath>
    </defs>
    <g fill="white" text-rendering="geometricPrecision" shape-rendering="geometricPrecision" transform="translate(-47,-116)" stroke="white">
      <rect x="47" width="610" height="210" y="116" clip-path="url(#clipPath2)" stroke="none"/>
    </g>
    <g fill="url(#linearGradient1)" text-rendering="geometricPrecision" shape-rendering="geometricPrecision" transform="matrix(1,0,0,1,-47,-116)" stroke="url(#linearGradient1)">
      <path d="M194 201 L274 201 L274 241 L194 241 Z" stroke="none" clip-path="url(#clipPath2)"/>
    </g>
    <g text-rendering="geometricPrecision" stroke-miterlimit="1.45" shape-rendering="geometricPrecision" transform="matrix(1,0,0,1,-47,-116)" stroke-linecap="butt">
      <path fill="none" d="M194 201 L274 201 L274 241 L194 241 Z" clip-path="url(#clipPath2)"/>
      <text x="199.8105" xml:space="preserve" y="225.1543" clip-path="url(#clipPath2)" font-family="sans-serif" stroke="none">SimGen Lib</text>
    </g>
    <g fill="url(#linearGradient2)" text-rendering="geometricPrecision" shape-rendering="geometricPrecision" transform="matrix(1,0,0,1,-47,-116)" stroke="url(#linearGradient2)">
      <path d="M194 131 L274 131 L274 171 L194 171 Z" stroke="none" clip-path="url(#clipPath2)"/>
    </g>
    <g text-rendering="geometricPrecision" stroke-miterlimit="1.45" shape-rendering="geometricPrecision" transform="matrix(1,0,0,1,-47,-116)" stroke-linecap="butt">
      <path fill="none" d="M194 131 L274 131 L274 171 L194 171 Z" clip-path="url(#clipPath2)"/>
      <text x="199.0459" xml:space="preserve" y="155.1543" clip-path="url(#clipPath2)" font-family="sans-serif" stroke="none">prolog shell</text>
    </g>
    <g fill="url(#linearGradient3)" text-rendering="geometricPrecision" shape-rendering="geometricPrecision" transform="matrix(1,0,0,1,-47,-116)" stroke="url(#linearGradient3)">
      <path d="M325 201 L395 201 L395 241 L315 241 L315 211 Z" stroke="none" clip-path="url(#clipPath2)"/>
    </g>
    <g text-rendering="geometricPrecision" stroke-miterlimit="1.45" shape-rendering="geometricPrecision" transform="matrix(1,0,0,1,-47,-116)" stroke-linecap="butt">
      <path fill="none" d="M325 201 L395 201 L395 241 L315 241 L315 211 Z" clip-path="url(#clipPath2)"/>
      <text x="326.0664" xml:space="preserve" y="225.1543" clip-path="url(#clipPath2)" font-family="sans-serif" stroke="none">.simai file</text>
    </g>
    <g fill="url(#linearGradient4)" text-rendering="geometricPrecision" shape-rendering="geometricPrecision" transform="matrix(1,0,0,1,-47,-116)" stroke="url(#linearGradient4)">
      <circle r="20" clip-path="url(#clipPath2)" cx="104" cy="221" stroke="none"/>
    </g>
    <g text-rendering="geometricPrecision" stroke-miterlimit="1.45" shape-rendering="geometricPrecision" transform="matrix(1,0,0,1,-47,-116)" stroke-linecap="butt">
      <circle fill="none" r="20" clip-path="url(#clipPath2)" cx="104" cy="221"/>
      <line y2="241" fill="none" x1="104" clip-path="url(#clipPath2)" x2="124" y1="241"/>
      <text x="64.7012" xml:space="preserve" y="218.1699" clip-path="url(#clipPath2)" font-family="sans-serif" stroke="none">BT Language</text>
      <text x="93.5234" xml:space="preserve" y="232.1387" clip-path="url(#clipPath2)" font-family="sans-serif" stroke="none">File</text>
    </g>
    <g fill="url(#linearGradient5)" text-rendering="geometricPrecision" shape-rendering="geometricPrecision" transform="matrix(1,0,0,1,-47,-116)" stroke="url(#linearGradient5)">
      <path d="M582 209 C583.8 201 640.2 201 642 209 L642 233 C640.2 241 583.8 241 582 233 Z" stroke="none" clip-path="url(#clipPath2)"/>
    </g>
    <g text-rendering="geometricPrecision" stroke-miterlimit="1.45" shape-rendering="geometricPrecision" transform="matrix(1,0,0,1,-47,-116)" stroke-linecap="butt">
      <path fill="none" d="M582 209 C583.8 201 640.2 201 642 209 L642 233 C640.2 241 583.8 241 582 233 Z" clip-path="url(#clipPath2)"/>
      <path fill="none" d="M642 209 C640.2 217 583.8 217 582 209" clip-path="url(#clipPath2)"/>
      <text x="585.6826" xml:space="preserve" y="225.1543" clip-path="url(#clipPath2)" font-family="sans-serif" stroke="none">segment</text>
    </g>
    <g fill="url(#linearGradient6)" text-rendering="geometricPrecision" shape-rendering="geometricPrecision" transform="matrix(1,0,0,1,-47,-116)" stroke="url(#linearGradient6)">
      <path d="M445 201 L525 201 L525 241 L445 241 Z" stroke="none" clip-path="url(#clipPath2)"/>
    </g>
    <g text-rendering="geometricPrecision" stroke-miterlimit="1.45" shape-rendering="geometricPrecision" transform="matrix(1,0,0,1,-47,-116)" stroke-linecap="butt">
      <path fill="none" d="M445 201 L525 201 L525 241 L445 241 Z" clip-path="url(#clipPath2)"/>
      <text x="448.0537" xml:space="preserve" y="225.1543" clip-path="url(#clipPath2)" font-family="sans-serif" stroke="none">sim_interact</text>
    </g>
    <g fill="url(#linearGradient7)" text-rendering="geometricPrecision" shape-rendering="geometricPrecision" transform="matrix(1,0,0,1,-47,-116)" stroke="url(#linearGradient7)">
      <path d="M445 291 Q450 276 465 271 L520 271 Q530 291 520 311 L465 311 Q450 306 445 291" stroke="none" clip-path="url(#clipPath2)"/>
    </g>
    <g text-rendering="geometricPrecision" stroke-miterlimit="1.45" shape-rendering="geometricPrecision" transform="matrix(1,0,0,1,-47,-116)" stroke-linecap="butt">
      <path fill="none" d="M445 291 Q450 276 465 271 L520 271 Q530 291 520 311 L465 311 Q450 306 445 291" clip-path="url(#clipPath2)"/>
      <text x="452.7588" xml:space="preserve" y="295.1543" clip-path="url(#clipPath2)" font-family="sans-serif" stroke="none">FI Explorer</text>
    </g>
    <g text-rendering="geometricPrecision" stroke-miterlimit="1.45" shape-rendering="geometricPrecision" transform="matrix(1,0,0,1,-47,-116)" stroke-linecap="butt">
      <path fill="none" d="M234 170.9951 L234 193.0273" clip-path="url(#clipPath2)"/>
    </g>
    <g text-rendering="geometricPrecision" stroke-miterlimit="1.45" shape-rendering="geometricPrecision" transform="matrix(1,0,0,1,-47,-116)" stroke-linecap="butt">
      <path d="M234 201.0273 L239 189.0273 L234 192.0273 L229 189.0273 Z" stroke="none" clip-path="url(#clipPath2)"/>
      <path fill="none" d="M274.0281 221 L307.028 221" clip-path="url(#clipPath2)"/>
      <path d="M315.028 221 L303.028 216 L306.028 221 L303.028 226 Z" clip-path="url(#clipPath2)" stroke="none"/>
      <path fill="none" d="M124.0269 221 L186.022 221" clip-path="url(#clipPath2)"/>
      <path d="M194.022 221 L182.022 216 L185.022 221 L182.022 226 Z" clip-path="url(#clipPath2)" stroke="none"/>
      <path fill="none" d="M395.022 221 L436.9756 221" clip-path="url(#clipPath2)"/>
      <path d="M444.9756 221 L432.9756 216 L435.9756 221 L432.9756 226 Z" clip-path="url(#clipPath2)" stroke="none"/>
      <path fill="none" d="M525.0286 221 L573.9762 221" clip-path="url(#clipPath2)"/>
      <path d="M581.9762 221 L569.9762 216 L572.9762 221 L569.9762 226 Z" clip-path="url(#clipPath2)" stroke="none"/>
      <path fill="none" d="M392.1655 241.0122 L449.0588 271.647" clip-path="url(#clipPath2)"/>
      <path d="M456.1025 275.4398 L447.9074 265.3483 L448.1783 271.1729 L443.1664 274.153 Z" clip-path="url(#clipPath2)" stroke="none"/>
    </g>
  </g>
</svg>
